<mxfile host="app.diagrams.net" modified="2024-06-15T13:25:14.371Z" agent="Mozilla/5.0 (X11; Linux x86_64) AppleWebKit/537.36 (KHTML, like Gecko) Chrome/126.0.0.0 Safari/537.36" etag="RR19SprpGcMAeWPYqThg" version="24.5.4" type="device">
  <diagram name="PÃ¡gina-1" id="q8hXpQy_zhLiE-coI5GZ">
    <mxGraphModel dx="1434" dy="754" grid="1" gridSize="10" guides="1" tooltips="1" connect="1" arrows="1" fold="1" page="1" pageScale="1" pageWidth="827" pageHeight="1169" math="0" shadow="0">
      <root>
        <mxCell id="0" />
        <mxCell id="1" parent="0" />
        <mxCell id="Cdan8xapJu5p4qlZLLdJ-14" value="" style="edgeStyle=orthogonalEdgeStyle;rounded=0;orthogonalLoop=1;jettySize=auto;html=1;" parent="1" source="Cdan8xapJu5p4qlZLLdJ-1" target="Cdan8xapJu5p4qlZLLdJ-13" edge="1">
          <mxGeometry relative="1" as="geometry" />
        </mxCell>
        <mxCell id="oe01ETDk_5zIMrqQWYxT-18" value="send message" style="edgeLabel;html=1;align=center;verticalAlign=middle;resizable=0;points=[];" vertex="1" connectable="0" parent="Cdan8xapJu5p4qlZLLdJ-14">
          <mxGeometry x="-0.2" y="-3" relative="1" as="geometry">
            <mxPoint as="offset" />
          </mxGeometry>
        </mxCell>
        <mxCell id="Cdan8xapJu5p4qlZLLdJ-1" value="producer" style="ellipse;whiteSpace=wrap;html=1;aspect=fixed;" parent="1" vertex="1">
          <mxGeometry x="230" y="130" width="80" height="80" as="geometry" />
        </mxCell>
        <mxCell id="Cdan8xapJu5p4qlZLLdJ-7" value="" style="edgeStyle=orthogonalEdgeStyle;rounded=0;orthogonalLoop=1;jettySize=auto;html=1;entryX=0.5;entryY=0;entryDx=0;entryDy=0;" parent="1" source="Cdan8xapJu5p4qlZLLdJ-2" target="Cdan8xapJu5p4qlZLLdJ-6" edge="1">
          <mxGeometry relative="1" as="geometry">
            <mxPoint x="540" y="550" as="targetPoint" />
            <Array as="points">
              <mxPoint x="570" y="380" />
              <mxPoint x="570" y="380" />
            </Array>
          </mxGeometry>
        </mxCell>
        <mxCell id="oe01ETDk_5zIMrqQWYxT-10" value="error" style="edgeLabel;html=1;align=center;verticalAlign=middle;resizable=0;points=[];" vertex="1" connectable="0" parent="Cdan8xapJu5p4qlZLLdJ-7">
          <mxGeometry x="-0.5669" y="3" relative="1" as="geometry">
            <mxPoint x="-3" as="offset" />
          </mxGeometry>
        </mxCell>
        <mxCell id="Cdan8xapJu5p4qlZLLdJ-2" value="main_queue" style="whiteSpace=wrap;html=1;" parent="1" vertex="1">
          <mxGeometry x="470" y="290" width="120" height="60" as="geometry" />
        </mxCell>
        <mxCell id="oe01ETDk_5zIMrqQWYxT-12" value="" style="edgeStyle=orthogonalEdgeStyle;rounded=0;orthogonalLoop=1;jettySize=auto;html=1;" edge="1" parent="1" source="Cdan8xapJu5p4qlZLLdJ-4" target="oe01ETDk_5zIMrqQWYxT-11">
          <mxGeometry relative="1" as="geometry" />
        </mxCell>
        <mxCell id="oe01ETDk_5zIMrqQWYxT-17" value="success" style="edgeLabel;html=1;align=center;verticalAlign=middle;resizable=0;points=[];" vertex="1" connectable="0" parent="oe01ETDk_5zIMrqQWYxT-12">
          <mxGeometry x="0.0667" y="-1" relative="1" as="geometry">
            <mxPoint as="offset" />
          </mxGeometry>
        </mxCell>
        <mxCell id="oe01ETDk_5zIMrqQWYxT-16" value="" style="edgeStyle=orthogonalEdgeStyle;rounded=0;orthogonalLoop=1;jettySize=auto;html=1;" edge="1" parent="1" source="Cdan8xapJu5p4qlZLLdJ-4" target="Cdan8xapJu5p4qlZLLdJ-2">
          <mxGeometry relative="1" as="geometry" />
        </mxCell>
        <mxCell id="oe01ETDk_5zIMrqQWYxT-19" value="consume message" style="edgeLabel;html=1;align=center;verticalAlign=middle;resizable=0;points=[];" vertex="1" connectable="0" parent="oe01ETDk_5zIMrqQWYxT-16">
          <mxGeometry x="-0.25" relative="1" as="geometry">
            <mxPoint as="offset" />
          </mxGeometry>
        </mxCell>
        <mxCell id="Cdan8xapJu5p4qlZLLdJ-4" value="consumer" style="ellipse;whiteSpace=wrap;html=1;" parent="1" vertex="1">
          <mxGeometry x="490" y="130" width="80" height="80" as="geometry" />
        </mxCell>
        <mxCell id="Cdan8xapJu5p4qlZLLdJ-9" value="" style="edgeStyle=orthogonalEdgeStyle;rounded=0;orthogonalLoop=1;jettySize=auto;html=1;" parent="1" source="Cdan8xapJu5p4qlZLLdJ-6" target="Cdan8xapJu5p4qlZLLdJ-8" edge="1">
          <mxGeometry relative="1" as="geometry" />
        </mxCell>
        <mxCell id="oe01ETDk_5zIMrqQWYxT-2" value="dead_messages_key" style="edgeLabel;html=1;align=center;verticalAlign=middle;resizable=0;points=[];" vertex="1" connectable="0" parent="Cdan8xapJu5p4qlZLLdJ-9">
          <mxGeometry x="-0.1444" y="-3" relative="1" as="geometry">
            <mxPoint x="-1" as="offset" />
          </mxGeometry>
        </mxCell>
        <mxCell id="Cdan8xapJu5p4qlZLLdJ-6" value="dead_letter_exchange" style="shape=hexagon;perimeter=hexagonPerimeter2;whiteSpace=wrap;html=1;fixedSize=1;" parent="1" vertex="1">
          <mxGeometry x="510" y="560" width="120" height="80" as="geometry" />
        </mxCell>
        <mxCell id="Cdan8xapJu5p4qlZLLdJ-17" style="edgeStyle=orthogonalEdgeStyle;rounded=0;orthogonalLoop=1;jettySize=auto;html=1;dashed=1;" parent="1" source="Cdan8xapJu5p4qlZLLdJ-8" target="Cdan8xapJu5p4qlZLLdJ-13" edge="1">
          <mxGeometry relative="1" as="geometry" />
        </mxCell>
        <mxCell id="Cdan8xapJu5p4qlZLLdJ-8" value="dead_letter_queue" style="whiteSpace=wrap;html=1;" parent="1" vertex="1">
          <mxGeometry x="210" y="570" width="120" height="60" as="geometry" />
        </mxCell>
        <mxCell id="Cdan8xapJu5p4qlZLLdJ-12" value="TTL&lt;br&gt;30 seconds" style="text;html=1;align=center;verticalAlign=middle;whiteSpace=wrap;rounded=0;" parent="1" vertex="1">
          <mxGeometry x="240" y="640" width="70" height="30" as="geometry" />
        </mxCell>
        <mxCell id="Cdan8xapJu5p4qlZLLdJ-15" value="" style="edgeStyle=orthogonalEdgeStyle;rounded=0;orthogonalLoop=1;jettySize=auto;html=1;" parent="1" source="Cdan8xapJu5p4qlZLLdJ-13" target="Cdan8xapJu5p4qlZLLdJ-2" edge="1">
          <mxGeometry relative="1" as="geometry" />
        </mxCell>
        <mxCell id="Cdan8xapJu5p4qlZLLdJ-19" value="main_routing_key" style="edgeLabel;html=1;align=center;verticalAlign=middle;resizable=0;points=[];" parent="Cdan8xapJu5p4qlZLLdJ-15" vertex="1" connectable="0">
          <mxGeometry x="-0.2222" y="2" relative="1" as="geometry">
            <mxPoint x="5" as="offset" />
          </mxGeometry>
        </mxCell>
        <mxCell id="Cdan8xapJu5p4qlZLLdJ-13" value="main&lt;span style=&quot;background-color: initial;&quot;&gt;_exchange&lt;/span&gt;" style="shape=hexagon;perimeter=hexagonPerimeter2;whiteSpace=wrap;html=1;fixedSize=1;" parent="1" vertex="1">
          <mxGeometry x="210" y="280" width="120" height="80" as="geometry" />
        </mxCell>
        <mxCell id="oe01ETDk_5zIMrqQWYxT-4" value="&lt;font style=&quot;font-size: 11px;&quot;&gt;x-dead-letter-exchange&lt;/font&gt;" style="text;html=1;align=center;verticalAlign=middle;whiteSpace=wrap;rounded=0;" vertex="1" parent="1">
          <mxGeometry x="260" y="460" width="140" height="30" as="geometry" />
        </mxCell>
        <mxCell id="oe01ETDk_5zIMrqQWYxT-6" style="edgeStyle=orthogonalEdgeStyle;rounded=0;orthogonalLoop=1;jettySize=auto;html=1;dashed=1;entryX=0;entryY=0.75;entryDx=0;entryDy=0;" edge="1" parent="1" source="Cdan8xapJu5p4qlZLLdJ-13" target="Cdan8xapJu5p4qlZLLdJ-2">
          <mxGeometry relative="1" as="geometry">
            <mxPoint x="320" y="330" as="sourcePoint" />
            <mxPoint x="400" y="330" as="targetPoint" />
            <Array as="points">
              <mxPoint x="370" y="335" />
              <mxPoint x="370" y="335" />
            </Array>
          </mxGeometry>
        </mxCell>
        <mxCell id="oe01ETDk_5zIMrqQWYxT-7" value="&lt;span style=&quot;color: rgb(0, 0, 0); font-family: Helvetica; font-style: normal; font-variant-ligatures: normal; font-variant-caps: normal; font-weight: 400; letter-spacing: normal; orphans: 2; text-align: center; text-indent: 0px; text-transform: none; widows: 2; word-spacing: 0px; -webkit-text-stroke-width: 0px; white-space: normal; background-color: rgb(251, 251, 251); text-decoration-thickness: initial; text-decoration-style: initial; text-decoration-color: initial; float: none; display: inline !important;&quot;&gt;&lt;font style=&quot;font-size: 11px;&quot;&gt;x-dead-letter-routing-key&lt;/font&gt;&lt;/span&gt;" style="text;whiteSpace=wrap;html=1;" vertex="1" parent="1">
          <mxGeometry x="330" y="330" width="150" height="30" as="geometry" />
        </mxCell>
        <mxCell id="oe01ETDk_5zIMrqQWYxT-11" value="end" style="ellipse;shape=doubleEllipse;whiteSpace=wrap;html=1;gradientColor=none;strokeColor=default;strokeWidth=3;" vertex="1" parent="1">
          <mxGeometry x="650" y="150" width="40" height="40" as="geometry" />
        </mxCell>
      </root>
    </mxGraphModel>
  </diagram>
</mxfile>
